<?xml version="1.0" standalone="no"?>
<!DOCTYPE svg PUBLIC "-//W3C//DTD SVG 20010904//EN"
 "http://www.w3.org/TR/2001/REC-SVG-20010904/DTD/svg10.dtd">
<svg version="1.0" xmlns="http://www.w3.org/2000/svg"
 width="2000.000000pt" height="1639.000000pt" viewBox="0 0 2000.000000 1639.000000"
 preserveAspectRatio="xMidYMid meet">
<metadata>
Created by potrace 1.15, written by Peter Selinger 2001-2017
</metadata>
<g transform="translate(0.000000,1639.000000) scale(0.100000,-0.100000)"
fill="#000000" stroke="none">
<path d="M14945 16234 c-27 -2 -131 -13 -231 -24 -1249 -138 -2437 -810 -3334
-1885 -51 -60 -94 -115 -97 -122 -2 -6 423 -879 946 -1939 523 -1061 947
-1931 943 -1935 -4 -3 -533 -277 -1177 -609 -1796 -925 -2391 -1239 -2474
-1307 l-22 -18 29 -45 c91 -143 544 -684 1967 -2345 462 -539 839 -987 839
-995 -1 -8 -349 -746 -774 -1640 -1392 -2928 -1509 -3174 -1505 -3178 2 -2 72
50 157 115 392 305 757 574 1784 1320 1142 829 1658 1212 2229 1656 2108 1641
3516 3088 4415 4538 763 1232 1180 2521 1207 3734 18 780 -138 1499 -469 2172
-209 424 -468 790 -803 1132 -254 259 -459 429 -745 616 -195 128 -279 176
-499 284 -496 244 -1006 389 -1611 457 -129 15 -662 27 -775 18z"/>
<path d="M4475 16189 c-761 -46 -1522 -280 -2160 -664 -1112 -670 -1875 -1791
-2095 -3080 -55 -323 -64 -439 -64 -820 0 -371 8 -485 59 -842 270 -1869 1355
-3718 3275 -5579 1044 -1011 2128 -1888 4155 -3360 220 -160 576 -418 790
-574 528 -384 947 -695 1249 -926 138 -107 254 -194 257 -194 3 0 326 1162
719 2582 392 1421 715 2588 717 2595 3 6 -763 639 -1701 1406 l-1705 1395
1637 1259 c900 692 1645 1265 1656 1274 19 16 -23 73 -1264 1760 -706 959
-1338 1809 -1404 1889 -142 171 -491 525 -661 670 -1013 865 -2211 1284 -3460
1209z"/>
</g>
</svg>
